<svg preserveAspectRatio="none" viewBox="0 0 16 17" fill="none" xmlns="http://www.w3.org/2000/svg">
<path fill-rule="evenodd" clip-rule="evenodd" d="M8.20448 3.45703L13.2018 8.45436L8.20515 13.451L3.20781 8.45436L8.20448 3.45703ZM4.62248 8.45436L8.20515 12.037L11.7878 8.45436L8.20515 4.8717L4.62248 8.45436Z" fill="#C70000" style="fill:#C70000;fill:color(display-p3 0.7804 0.0000 0.0000);fill-opacity:1;"/>
<path d="M7.99948 5.58138C8.91995 5.58138 9.66614 4.83519 9.66614 3.91471C9.66614 2.99424 8.91995 2.24805 7.99948 2.24805C7.079 2.24805 6.33281 2.99424 6.33281 3.91471C6.33281 4.83519 7.079 5.58138 7.99948 5.58138Z" fill="#C70000" style="fill:#C70000;fill:color(display-p3 0.7804 0.0000 0.0000);fill-opacity:1;"/>
<path d="M7.99948 14.2474C8.91995 14.2474 9.66614 13.5012 9.66614 12.5807C9.66614 11.6603 8.91995 10.9141 7.99948 10.9141C7.079 10.9141 6.33281 11.6603 6.33281 12.5807C6.33281 13.5012 7.079 14.2474 7.99948 14.2474Z" fill="#C70000" style="fill:#C70000;fill:color(display-p3 0.7804 0.0000 0.0000);fill-opacity:1;"/>
<path d="M3.66667 9.91536C4.58714 9.91536 5.33333 9.16917 5.33333 8.2487C5.33333 7.32822 4.58714 6.58203 3.66667 6.58203C2.74619 6.58203 2 7.32822 2 8.2487C2 9.16917 2.74619 9.91536 3.66667 9.91536Z" fill="#C70000" style="fill:#C70000;fill:color(display-p3 0.7804 0.0000 0.0000);fill-opacity:1;"/>
<path d="M12.3339 9.91536C13.2543 9.91536 14.0005 9.16917 14.0005 8.2487C14.0005 7.32822 13.2543 6.58203 12.3339 6.58203C11.4134 6.58203 10.6672 7.32822 10.6672 8.2487C10.6672 9.16917 11.4134 9.91536 12.3339 9.91536Z" fill="#C70000" style="fill:#C70000;fill:color(display-p3 0.7804 0.0000 0.0000);fill-opacity:1;"/>
</svg>
