<svg width="189" height="40" viewBox="0 0 189 40" fill="none" xmlns="http://www.w3.org/2000/svg">
<path fill-rule="evenodd" clip-rule="evenodd" d="M10.1447 30.9157L5.07121 39.9999H39.6101L34.5366 30.9157H10.1447Z" fill="#0A0A0A" style="fill:#0A0A0A;fill:color(display-p3 0.0392 0.0392 0.0392);fill-opacity:1;"/>
<path fill-rule="evenodd" clip-rule="evenodd" d="M17.2723 0L0 30.9159H10.1495L22.3458 9.08457L17.2723 0Z" fill="#0A0A0A" style="fill:#0A0A0A;fill:color(display-p3 0.0392 0.0392 0.0392);fill-opacity:1;"/>
<path fill-rule="evenodd" clip-rule="evenodd" d="M27.4226 0L22.349 9.08457L34.545 30.9159H44.6949L27.4226 0Z" fill="#0A0A0A" style="fill:#0A0A0A;fill:color(display-p3 0.0392 0.0392 0.0392);fill-opacity:1;"/>
<path fill-rule="evenodd" clip-rule="evenodd" d="M22.3471 17.9984C25.3813 17.9984 27.8408 20.5403 27.8408 23.6762C27.8408 26.8121 25.3813 29.354 22.3471 29.354C19.3128 29.354 16.8534 26.8121 16.8534 23.6762C16.8534 20.5403 19.3128 17.9984 22.3471 17.9984Z" fill="#0A0A0A" style="fill:#0A0A0A;fill:color(display-p3 0.0392 0.0392 0.0392);fill-opacity:1;"/>
<path fill-rule="evenodd" clip-rule="evenodd" d="M61.5706 6.15009C66.0644 6.15009 68.9626 8.74168 69.2229 12.9485H65.9993C65.8365 10.5255 64.1758 9.11191 61.5382 9.11191C58.5749 9.11191 56.6538 10.6602 56.6538 13.0494C56.6538 15.0017 57.7281 16.1797 59.9426 16.7181L63.8175 17.6603C67.6601 18.5693 69.6139 20.7233 69.6139 24.1558C69.6139 28.5312 66.3251 31.3241 61.3103 31.3241C56.5231 31.3241 53.3322 28.7332 53.1367 24.5595H56.3931C56.4583 26.8821 58.347 28.363 61.3103 28.363C64.4364 28.363 66.4227 26.8483 66.4227 24.4252C66.4227 22.5067 65.4132 21.2948 63.1662 20.7564L59.2913 19.8481C55.4488 18.9395 53.4622 16.6508 53.4622 13.1509C53.4622 8.97758 56.7186 6.15009 61.5706 6.15009Z" fill="#0A0A0A" style="fill:#0A0A0A;fill:color(display-p3 0.0392 0.0392 0.0392);fill-opacity:1;"/>
<path fill-rule="evenodd" clip-rule="evenodd" d="M71.4701 30.8873V6.15048H74.531V16.9872C75.5405 15.2034 77.4619 13.9922 79.9367 13.9922C84.0071 13.9922 85.961 16.6512 85.961 20.858V30.9208H82.8997V21.5646C82.8997 18.2326 81.3693 16.8864 79.09 16.8864C76.1266 16.8864 74.531 19.1077 74.531 21.9349V30.8873H71.4701Z" fill="#0A0A0A" style="fill:#0A0A0A;fill:color(display-p3 0.0392 0.0392 0.0392);fill-opacity:1;"/>
<path fill-rule="evenodd" clip-rule="evenodd" d="M98.7629 23.8191V22.9447L94.6925 23.2807C91.9898 23.5501 90.8823 24.6269 90.8823 26.2425C90.8823 27.9928 92.1197 28.8673 94.106 28.8673C97.0045 28.8673 98.7629 26.9156 98.7629 23.8191ZM87.7864 26.3431C87.7864 23.3147 89.9681 21.4293 93.7127 21.1268L98.7275 20.7231V20.2513C98.7275 17.4919 97.1319 16.5159 94.9829 16.5159C92.4102 16.5159 90.9449 17.6939 90.9449 19.6798H88.2746C88.2746 16.2465 91.01 13.9917 95.1132 13.9917C99.0533 13.9917 101.724 16.1457 101.724 20.5884V30.9202H99.1185L98.7926 28.2616C97.9786 30.1466 95.7969 31.3239 93.2242 31.3239C89.805 31.3239 87.7864 29.3388 87.7864 26.3431Z" fill="#0A0A0A" style="fill:#0A0A0A;fill:color(display-p3 0.0392 0.0392 0.0392);fill-opacity:1;"/>
<path fill-rule="evenodd" clip-rule="evenodd" d="M113.445 17.2233H112.078C109.179 17.2233 107.389 19.0402 107.389 22.2041V30.9206H104.327V14.497H107.193L107.389 16.987C108.04 15.2709 109.636 14.1268 111.817 14.1268C112.371 14.1268 112.826 14.1941 113.445 14.3288V17.2233Z" fill="#0A0A0A" style="fill:#0A0A0A;fill:color(display-p3 0.0392 0.0392 0.0392);fill-opacity:1;"/>
<path fill-rule="evenodd" clip-rule="evenodd" d="M126.148 22.6418C126.148 19.2758 124.226 16.8532 121.1 16.8532C117.974 16.8532 116.151 19.2758 116.151 22.6418C116.151 26.0404 117.974 28.4638 121.1 28.4638C124.226 28.4638 126.148 26.0743 126.148 22.6418ZM113.055 22.7426C113.055 17.6941 115.888 13.9922 120.61 13.9922C123.052 13.9922 125.103 15.1029 126.178 17.1219V6.15009H129.206V30.9208H126.471L126.21 27.9254C125.168 30.1803 123.019 31.3241 120.479 31.3241C115.855 31.3241 113.055 27.7569 113.055 22.7426Z" fill="#0A0A0A" style="fill:#0A0A0A;fill:color(display-p3 0.0392 0.0392 0.0392);fill-opacity:1;"/>
<path fill-rule="evenodd" clip-rule="evenodd" d="M133.995 21.1943H143.178C143.178 18.468 141.452 16.6511 138.749 16.6511C136.079 16.6511 134.386 18.2998 133.995 21.1943ZM130.963 22.7086C130.963 17.5593 134.122 13.9921 138.746 13.9921C143.273 13.9921 146.236 17.2233 146.236 22.1029V23.2809L133.927 23.3147C134.155 26.7808 135.913 28.6992 138.942 28.6992C141.319 28.6992 142.882 27.6894 143.403 25.8048H146.268C145.487 29.3389 142.817 31.324 138.876 31.324C134.187 31.324 130.963 27.8241 130.963 22.7086Z" fill="#0A0A0A" style="fill:#0A0A0A;fill:color(display-p3 0.0392 0.0392 0.0392);fill-opacity:1;"/>
<path fill-rule="evenodd" clip-rule="evenodd" d="M162.065 14.4633V30.9207H159.329L159.004 28.43C158.092 30.1472 155.975 31.3244 153.631 31.3244C149.919 31.3244 147.834 28.7336 147.834 24.6946V14.4633H150.895V23.6512C150.895 27.1853 152.361 28.5315 154.705 28.5315C157.506 28.5315 159.037 26.6804 159.037 23.1463V14.4633H162.065Z" fill="#0A0A0A" style="fill:#0A0A0A;fill:color(display-p3 0.0392 0.0392 0.0392);fill-opacity:1;"/>
<path fill-rule="evenodd" clip-rule="evenodd" d="M164.859 30.9202V14.4627H167.594L167.887 16.6168C168.701 15.0689 170.394 13.9917 172.641 13.9917C175.116 13.9917 176.875 15.2705 177.689 17.3237C178.438 15.2705 180.359 13.9917 182.834 13.9917C186.481 13.9917 188.696 16.3477 188.696 20.1505V30.9202H185.699V20.9244C185.699 18.3336 184.299 16.8527 182.15 16.8527C179.838 16.8527 178.308 18.5349 178.308 21.1607V30.9202H175.279V20.8909C175.279 18.2997 173.912 16.8861 171.762 16.8861C169.45 16.8861 167.92 18.5349 167.92 21.1607V30.9202H164.859Z" fill="#0A0A0A" style="fill:#0A0A0A;fill:color(display-p3 0.0392 0.0392 0.0392);fill-opacity:1;"/>
</svg>
