<svg viewBox="0 0 24 18" preserveAspectRatio="none" fill="none" xmlns="http://www.w3.org/2000/svg">
<path d="M23.2042 13.3496L20.4377 2.43805C20.3649 2.15398 20.2108 1.89732 19.9943 1.6995C19.7778 1.50168 19.5084 1.37129 19.2189 1.3243L15.8383 0.7693C15.4656 0.709358 15.084 0.790171 14.7676 0.996022C14.4512 1.20187 14.2226 1.51805 14.1264 1.88305L14.1067 1.96274C14.094 2.01336 14.0919 2.0661 14.1008 2.11756C14.1096 2.16902 14.129 2.21807 14.1579 2.26158C14.1867 2.30508 14.2244 2.34209 14.2683 2.37021C14.3123 2.39834 14.3617 2.41698 14.4133 2.42492C15.189 2.53877 15.9543 2.71497 16.7017 2.9518C16.8886 3.00818 17.047 3.13351 17.1448 3.30239C17.2427 3.47126 17.2726 3.67103 17.2286 3.86117C17.2033 3.96026 17.158 4.05312 17.0955 4.13406C17.033 4.215 16.9546 4.28229 16.8651 4.33182C16.7756 4.38134 16.677 4.41204 16.5752 4.42203C16.4734 4.43202 16.3707 4.4211 16.2733 4.38992C13.5 3.53941 10.536 3.53614 7.76079 4.38055C7.57299 4.4437 7.36807 4.43208 7.1886 4.34811C7.00914 4.26413 6.86891 4.11426 6.79704 3.92961C6.76289 3.83486 6.74816 3.7342 6.75375 3.63364C6.75934 3.53308 6.78513 3.43467 6.82958 3.34429C6.87402 3.25391 6.93622 3.17341 7.01245 3.10758C7.08869 3.04176 7.1774 2.99197 7.27329 2.96117C8.03005 2.72013 8.80508 2.5408 9.59079 2.42492C9.64239 2.41698 9.69176 2.39834 9.73575 2.37021C9.77973 2.34209 9.81735 2.30508 9.84621 2.26158C9.87507 2.21807 9.89452 2.16902 9.90333 2.11756C9.91214 2.0661 9.9101 2.01336 9.89736 1.96274L9.87767 1.88305C9.78143 1.51773 9.55258 1.20136 9.23574 0.995621C8.9189 0.789883 8.53679 0.709532 8.16392 0.770237L4.78142 1.32524C4.49208 1.37216 4.2227 1.50241 4.00624 1.70005C3.78978 1.8977 3.63563 2.15416 3.56267 2.43805L0.796106 13.3496C0.709362 13.6926 0.747115 14.0552 0.902647 14.373C1.05818 14.6907 1.3214 14.943 1.64548 15.0849L7.92673 17.8702C8.1156 17.9542 8.31965 17.9987 8.52633 18.0009C8.73301 18.0031 8.93796 17.963 9.12858 17.8831C9.3192 17.8032 9.49147 17.6852 9.6348 17.5362C9.77813 17.3873 9.8895 17.2107 9.96204 17.0171L10.2892 16.1312C10.3087 16.0781 10.316 16.0213 10.3104 15.9651C10.3049 15.9088 10.2867 15.8545 10.2572 15.8063C10.2277 15.758 10.1877 15.7171 10.1402 15.6865C10.0926 15.6559 10.0388 15.6365 9.98267 15.6296C9.07192 15.5193 8.17338 15.3247 7.29861 15.0484C7.11253 14.9918 6.9548 14.8668 6.8572 14.6986C6.75961 14.5304 6.7294 14.3314 6.77267 14.1418C6.79775 14.0424 6.84292 13.9493 6.90541 13.868C6.96789 13.7868 7.04635 13.7193 7.13596 13.6695C7.22557 13.6198 7.32441 13.589 7.42639 13.5789C7.52838 13.5689 7.63134 13.5799 7.72892 13.6112C10.5126 14.4637 13.4877 14.4637 16.2714 13.6112C16.3689 13.58 16.4717 13.5691 16.5735 13.5792C16.6753 13.5892 16.774 13.62 16.8635 13.6696C16.953 13.7192 17.0314 13.7866 17.0938 13.8677C17.1563 13.9487 17.2015 14.0417 17.2267 14.1409C17.2705 14.3306 17.2405 14.5299 17.1429 14.6984C17.0452 14.8669 16.8872 14.992 16.7008 15.0484C15.8264 15.3248 14.9281 15.5194 14.0177 15.6296C13.9616 15.6365 13.9077 15.6559 13.8602 15.6865C13.8126 15.7171 13.7726 15.758 13.7431 15.8063C13.7137 15.8545 13.6955 15.9088 13.6899 15.9651C13.6844 16.0213 13.6916 16.0781 13.7111 16.1312L14.0383 17.0171C14.111 17.2106 14.2224 17.3871 14.3657 17.536C14.5091 17.6848 14.6813 17.8028 14.8719 17.8827C15.0625 17.9626 15.2674 18.0027 15.4741 18.0006C15.6807 17.9984 15.8847 17.9541 16.0736 17.8702L22.3549 15.0849C22.6789 14.943 22.9422 14.6907 23.0977 14.373C23.2532 14.0552 23.291 13.6926 23.2042 13.3496ZM8.62517 11.2505C8.40267 11.2505 8.18516 11.1846 8.00015 11.061C7.81515 10.9373 7.67095 10.7616 7.5858 10.5561C7.50066 10.3505 7.47838 10.1243 7.52179 9.90607C7.56519 9.68784 7.67234 9.48739 7.82967 9.33005C7.98701 9.17272 8.18746 9.06557 8.40569 9.02217C8.62392 8.97876 8.85012 9.00104 9.05569 9.08618C9.26126 9.17133 9.43696 9.31553 9.56057 9.50053C9.68419 9.68554 9.75017 9.90304 9.75017 10.1255C9.75017 10.4239 9.63164 10.7101 9.42066 10.921C9.20969 11.132 8.92354 11.2505 8.62517 11.2505ZM15.3752 11.2505C15.1527 11.2505 14.9352 11.1846 14.7502 11.061C14.5651 10.9373 14.421 10.7616 14.3358 10.5561C14.2507 10.3505 14.2284 10.1243 14.2718 9.90607C14.3152 9.68784 14.4223 9.48739 14.5797 9.33005C14.737 9.17272 14.9375 9.06557 15.1557 9.02217C15.3739 8.97876 15.6001 9.00104 15.8057 9.08618C16.0113 9.17133 16.187 9.31553 16.3106 9.50053C16.4342 9.68554 16.5002 9.90304 16.5002 10.1255C16.5002 10.4239 16.3816 10.7101 16.1707 10.921C15.9597 11.132 15.6735 11.2505 15.3752 11.2505Z" fill="#5865F2" style="fill:#5865F2;fill:color(display-p3 0.3451 0.3961 0.9490);fill-opacity:1;"/>
</svg>
