<svg preserveAspectRatio="none" viewBox="0 0 20 20" fill="none" xmlns="http://www.w3.org/2000/svg">
<path d="M15.6531 2.06063C15.6336 2.04398 15.6133 2.02833 15.5922 2.01376C15.5706 1.99876 15.5481 1.9847 15.5256 1.97157C13.4385 0.462914 10.8387 -0.157378 8.2953 0.24648C5.75189 0.650337 3.47208 2.04544 1.95496 4.1264C0.437832 6.20736 -0.19302 8.80464 0.200498 11.3497C0.594017 13.8947 1.97985 16.1802 4.05462 17.7057C6.1294 19.2313 8.72409 19.8727 11.2707 19.4895C13.8173 19.1063 16.1084 17.7298 17.6424 15.6613C19.1764 13.5927 19.8283 11.0006 19.4555 8.45249C19.0827 5.90434 17.7154 3.6077 15.6531 2.06532V2.06063ZM10 12.2503C9.555 12.2503 9.11999 12.1184 8.74998 11.8711C8.37997 11.6239 8.09158 11.2725 7.92128 10.8614C7.75098 10.4502 7.70643 9.99782 7.79324 9.56137C7.88006 9.12491 8.09435 8.724 8.40902 8.40933C8.72369 8.09466 9.1246 7.88037 9.56106 7.79355C9.99751 7.70674 10.4499 7.75129 10.861 7.92159C11.2722 8.09189 11.6236 8.38028 11.8708 8.75029C12.118 9.1203 12.25 9.55531 12.25 10.0003C12.25 10.5971 12.013 11.1694 11.591 11.5913C11.169 12.0133 10.5967 12.2503 10 12.2503ZM18.25 10.0003C18.25 10.2319 18.2397 10.4616 18.2209 10.6884L13.75 9.89907C13.7248 8.97452 13.3573 8.09225 12.7188 7.42313L15.3231 3.70407C16.2402 4.47695 16.9774 5.44091 17.4829 6.52848C17.9885 7.61606 18.2503 8.80098 18.25 10.0003Z" fill="#B8B8B7" style="fill:#B8B8B7;fill:color(display-p3 0.7216 0.7216 0.7176);fill-opacity:1;"/>
</svg>
