<svg preserveAspectRatio="none" viewBox="0 0 20 19" fill="none" xmlns="http://www.w3.org/2000/svg">
<path d="M19.4163 6.37611L10.4163 0.376112C10.293 0.293883 10.1482 0.25 10 0.25C9.85184 0.25 9.707 0.293883 9.58375 0.376112L0.58375 6.37611C0.48101 6.44466 0.396789 6.53752 0.338565 6.64644C0.280342 6.75536 0.24992 6.87698 0.25 7.00049V16.7505C0.25 17.1483 0.408035 17.5298 0.68934 17.8111C0.970644 18.0925 1.35218 18.2505 1.75 18.2505H18.25C18.6478 18.2505 19.0294 18.0925 19.3107 17.8111C19.592 17.5298 19.75 17.1483 19.75 16.7505V7.00049C19.7501 6.87698 19.7197 6.75536 19.6614 6.64644C19.6032 6.53752 19.519 6.44466 19.4163 6.37611ZM7.0675 12.2505L1.75 16.0005V8.45642L7.0675 12.2505ZM8.60219 13.0005H11.3978L16.7069 16.7505H3.29312L8.60219 13.0005ZM12.9325 12.2505L18.25 8.45642V16.0005L12.9325 12.2505Z" fill="#3042FB" style="fill:#3042FB;fill:color(display-p3 0.1885 0.2604 0.9833);fill-opacity:1;"/>
</svg>
