<svg preserveAspectRatio="none" viewBox="0 0 21 21" fill="none" xmlns="http://www.w3.org/2000/svg">
<path d="M20.25 7.75001V8.50001C20.2484 9.76902 19.7877 10.9946 18.953 11.9504C18.1183 12.9063 16.966 13.5278 15.7087 13.7003C16.2219 14.357 16.5005 15.1666 16.5 16V19.75C16.5 19.9489 16.421 20.1397 16.2803 20.2803C16.1397 20.421 15.9489 20.5 15.75 20.5H9.75C9.55109 20.5 9.36032 20.421 9.21967 20.2803C9.07902 20.1397 9 19.9489 9 19.75V18.25H6.75C5.75544 18.25 4.80161 17.8549 4.09835 17.1517C3.39509 16.4484 3 15.4946 3 14.5C3 13.9033 2.76295 13.331 2.34099 12.909C1.91903 12.4871 1.34674 12.25 0.75 12.25C0.551088 12.25 0.360322 12.171 0.21967 12.0303C0.0790176 11.8897 0 11.6989 0 11.5C0 11.3011 0.0790176 11.1103 0.21967 10.9697C0.360322 10.829 0.551088 10.75 0.75 10.75C1.24246 10.75 1.73009 10.847 2.18506 11.0355C2.64003 11.2239 3.05343 11.5001 3.40165 11.8484C3.74987 12.1966 4.02609 12.61 4.21455 13.0649C4.403 13.5199 4.5 14.0076 4.5 14.5C4.5 15.0967 4.73705 15.669 5.15901 16.091C5.58097 16.513 6.15326 16.75 6.75 16.75H9V16C8.99952 15.1666 9.27807 14.357 9.79125 13.7003C8.53402 13.5278 7.38166 12.9063 6.54696 11.9504C5.71225 10.9946 5.25158 9.76902 5.25 8.50001V7.75001C5.25934 6.81793 5.50756 5.90381 5.97094 5.09501C5.74169 4.35551 5.66816 3.57653 5.75497 2.80719C5.84177 2.03785 6.08704 1.29484 6.47531 0.625012C6.54115 0.510973 6.63586 0.416279 6.7499 0.350451C6.86395 0.284623 6.99332 0.249983 7.125 0.250012C7.99857 0.248184 8.86047 0.450697 9.64182 0.841373C10.4232 1.23205 11.1023 1.80006 11.625 2.50001H13.875C14.3977 1.80006 15.0768 1.23205 15.8582 0.841373C16.6395 0.450697 17.5014 0.248184 18.375 0.250012C18.5067 0.249983 18.636 0.284623 18.7501 0.350451C18.8641 0.416279 18.9588 0.510973 19.0247 0.625012C19.413 1.29482 19.6582 2.03787 19.7449 2.80725C19.8315 3.57662 19.7577 4.35561 19.5281 5.09501C19.9924 5.90349 20.241 6.81776 20.25 7.75001Z" fill="#333333" style="fill:#333333;fill:color(display-p3 0.2000 0.2000 0.2000);fill-opacity:1;"/>
</svg>
