<svg viewBox="0 0 19 18" fill="none" xmlns="http://www.w3.org/2000/svg">
<path d="M17.4564 0H2.45642C2.0586 0 1.67707 0.158035 1.39576 0.43934C1.11446 0.720644 0.956421 1.10218 0.956421 1.5V16.5C0.956421 16.8978 1.11446 17.2794 1.39576 17.5607C1.67707 17.842 2.0586 18 2.45642 18H17.4564C17.8542 18 18.2358 17.842 18.5171 17.5607C18.7984 17.2794 18.9564 16.8978 18.9564 16.5V1.5C18.9564 1.10218 18.7984 0.720644 18.5171 0.43934C18.2358 0.158035 17.8542 0 17.4564 0ZM5.45642 16.5H2.45642V1.5H5.45642V16.5ZM14.4564 11.25H8.45642C8.25751 11.25 8.06674 11.171 7.92609 11.0303C7.78544 10.8897 7.70642 10.6989 7.70642 10.5C7.70642 10.3011 7.78544 10.1103 7.92609 9.96967C8.06674 9.82902 8.25751 9.75 8.45642 9.75H14.4564C14.6553 9.75 14.8461 9.82902 14.9868 9.96967C15.1274 10.1103 15.2064 10.3011 15.2064 10.5C15.2064 10.6989 15.1274 10.8897 14.9868 11.0303C14.8461 11.171 14.6553 11.25 14.4564 11.25ZM14.4564 8.25H8.45642C8.25751 8.25 8.06674 8.17098 7.92609 8.03033C7.78544 7.88968 7.70642 7.69891 7.70642 7.5C7.70642 7.30109 7.78544 7.11032 7.92609 6.96967C8.06674 6.82902 8.25751 6.75 8.45642 6.75H14.4564C14.6553 6.75 14.8461 6.82902 14.9868 6.96967C15.1274 7.11032 15.2064 7.30109 15.2064 7.5C15.2064 7.69891 15.1274 7.88968 14.9868 8.03033C14.8461 8.17098 14.6553 8.25 14.4564 8.25Z" fill="#0A0A0A" style="fill:#0A0A0A;fill:color(display-p3 0.0392 0.0392 0.0392);fill-opacity:1;"/>
</svg>
