<svg viewBox="0 0 24 15" preserveAspectRatio="none" fill="none" xmlns="http://www.w3.org/2000/svg">
<path d="M21.75 0.25H2.25C1.85218 0.25 1.47064 0.408035 1.18934 0.68934C0.908035 0.970644 0.75 1.35218 0.75 1.75V13.75C0.75 13.9489 0.829018 14.1397 0.96967 14.2803C1.11032 14.421 1.30109 14.5 1.5 14.5C1.69891 14.5 1.88968 14.421 2.03033 14.2803C2.17098 14.1397 2.25 13.9489 2.25 13.75V12.25H3.75V13.75C3.75 13.9489 3.82902 14.1397 3.96967 14.2803C4.11032 14.421 4.30109 14.5 4.5 14.5C4.69891 14.5 4.88968 14.421 5.03033 14.2803C5.17098 14.1397 5.25 13.9489 5.25 13.75V12.25H6.75V13.75C6.75 13.9489 6.82902 14.1397 6.96967 14.2803C7.11032 14.421 7.30109 14.5 7.5 14.5C7.69891 14.5 7.88968 14.421 8.03033 14.2803C8.17098 14.1397 8.25 13.9489 8.25 13.75V12.25H9.75V13.75C9.75 13.9489 9.82902 14.1397 9.96967 14.2803C10.1103 14.421 10.3011 14.5 10.5 14.5C10.6989 14.5 10.8897 14.421 11.0303 14.2803C11.171 14.1397 11.25 13.9489 11.25 13.75V12.25H12.75V13.75C12.75 13.9489 12.829 14.1397 12.9697 14.2803C13.1103 14.421 13.3011 14.5 13.5 14.5C13.6989 14.5 13.8897 14.421 14.0303 14.2803C14.171 14.1397 14.25 13.9489 14.25 13.75V12.25H15.75V13.75C15.75 13.9489 15.829 14.1397 15.9697 14.2803C16.1103 14.421 16.3011 14.5 16.5 14.5C16.6989 14.5 16.8897 14.421 17.0303 14.2803C17.171 14.1397 17.25 13.9489 17.25 13.75V12.25H18.75V13.75C18.75 13.9489 18.829 14.1397 18.9697 14.2803C19.1103 14.421 19.3011 14.5 19.5 14.5C19.6989 14.5 19.8897 14.421 20.0303 14.2803C20.171 14.1397 20.25 13.9489 20.25 13.75V12.25H21.75V13.75C21.75 13.9489 21.829 14.1397 21.9697 14.2803C22.1103 14.421 22.3011 14.5 22.5 14.5C22.6989 14.5 22.8897 14.421 23.0303 14.2803C23.171 14.1397 23.25 13.9489 23.25 13.75V1.75C23.25 1.35218 23.092 0.970644 22.8107 0.68934C22.5294 0.408035 22.1478 0.25 21.75 0.25ZM19.5 4V8.5H13.5V4H19.5ZM10.5 4V8.5H4.5V4H10.5Z" fill="#B8B8B7" style="fill:#B8B8B7;fill:color(display-p3 0.7216 0.7216 0.7176);fill-opacity:1;"/>
</svg>
