<svg preserveAspectRatio="none" viewBox="0 0 12 13" fill="none" xmlns="http://www.w3.org/2000/svg">
<mask id="path-1-inside-1_1566_2292" fill="white">
<path d="M6.442 1.51478C6.269 1.18778 5.731 1.18778 5.558 1.51478L1.058 10.0148C1.01749 10.091 0.997408 10.1763 0.999708 10.2626C1.00201 10.3489 1.02661 10.433 1.07113 10.507C1.11564 10.5809 1.17854 10.642 1.2537 10.6844C1.32886 10.7268 1.41371 10.7489 1.5 10.7488H10.5C10.5862 10.749 10.671 10.7268 10.7461 10.6844C10.8212 10.6421 10.8841 10.581 10.9286 10.5071C10.973 10.4332 10.9976 10.3491 10.9999 10.2629C11.0021 10.1767 10.982 10.0914 10.9415 10.0153L6.442 1.51478Z"/>
</mask>
<path d="M6.442 1.51478L5.55808 1.98242L5.55818 1.98261L6.442 1.51478ZM5.558 1.51478L6.44179 1.98267L6.44192 1.98242L5.558 1.51478ZM1.058 10.0148L1.94095 10.4843L1.94179 10.4827L1.058 10.0148ZM1.5 10.7488V9.74878L1.49806 9.74878L1.5 10.7488ZM10.5 10.7488L10.5021 9.74878H10.5V10.7488ZM10.9415 10.0153L10.0577 10.4831L10.0588 10.4852L10.9415 10.0153ZM7.32592 1.04714C7.02693 0.481993 6.4561 0.269531 6 0.269531C5.54389 0.269531 4.97307 0.481993 4.67408 1.04714L6.44192 1.98242C6.31593 2.22057 6.1006 2.26953 6 2.26953C5.89939 2.26953 5.68407 2.22057 5.55808 1.98242L7.32592 1.04714ZM4.67421 1.04689L0.17421 9.54689L1.94179 10.4827L6.44179 1.98267L4.67421 1.04689ZM0.175051 9.54531C0.0534449 9.77402 -0.00684214 10.0303 6.38366e-05 10.2893L1.99935 10.2359C2.00166 10.3224 1.98154 10.4079 1.94095 10.4843L0.175051 9.54531ZM6.38366e-05 10.2893C0.00696981 10.5482 0.0808329 10.8009 0.214457 11.0228L1.92779 9.99109C1.97239 10.0652 1.99705 10.1495 1.99935 10.2359L6.38366e-05 10.2893ZM0.214457 11.0228C0.348081 11.2447 0.536908 11.4282 0.762539 11.5555L1.74486 9.81331C1.82017 9.85578 1.88319 9.91702 1.92779 9.99109L0.214457 11.0228ZM0.762539 11.5555C0.988168 11.6827 1.24291 11.7493 1.50194 11.7488L1.49806 9.74878C1.58452 9.74862 1.66955 9.77085 1.74486 9.81331L0.762539 11.5555ZM1.5 11.7488H10.5V9.74878H1.5V11.7488ZM10.4979 11.7488C10.7569 11.7493 11.0117 11.6827 11.2373 11.5555L10.2549 9.81338C10.3304 9.77086 10.4155 9.7486 10.5021 9.74878L10.4979 11.7488ZM11.2373 11.5555C11.4629 11.4283 11.6518 11.2447 11.7853 11.0228L10.0718 9.99142C10.1164 9.91725 10.1795 9.85591 10.2549 9.81338L11.2373 11.5555ZM11.7853 11.0228C11.9189 10.8009 11.9927 10.5481 11.9995 10.2892L10.0002 10.2366C10.0025 10.1501 10.0271 10.0656 10.0718 9.99142L11.7853 11.0228ZM11.9995 10.2892C12.0063 10.0303 11.9459 9.77398 11.8242 9.54534L10.0588 10.4852C10.0181 10.4088 9.99793 10.3232 10.0002 10.2366L11.9995 10.2892ZM11.8253 9.54746L7.32582 1.04696L5.55818 1.98261L10.0577 10.4831L11.8253 9.54746Z" fill="#C70000" style="fill:#C70000;fill:color(display-p3 0.7804 0.0000 0.0000);fill-opacity:1;" mask="url(#path-1-inside-1_1566_2292)"/>
<path d="M5.5 9.24805H6.5V8.24805H5.5V9.24805Z" fill="#C70000" style="fill:#C70000;fill:color(display-p3 0.7804 0.0000 0.0000);fill-opacity:1;"/>
<path d="M5.5 4.74805V7.24805H6.5005L6.5 4.74805H5.5Z" fill="#C70000" style="fill:#C70000;fill:color(display-p3 0.7804 0.0000 0.0000);fill-opacity:1;"/>
</svg>
